<svg xmlns="http://www.w3.org/2000/svg" style="display:none">

<symbol id="i-home" viewBox="0 0 24 24"><path fill="none" stroke="currentColor" stroke-width="2" stroke-linecap="round" stroke-linejoin="round" d="M3 11 12 3l9 8"/><path fill="none" stroke="currentColor" stroke-width="2" stroke-linecap="round" stroke-linejoin="round" d="M5.5 9.5V20h13V9.5"/><path fill="none" stroke="currentColor" stroke-width="2" stroke-linecap="round" stroke-linejoin="round" d="M10 20v-6h4v6"/></symbol>
<symbol id="i-star" viewBox="0 0 24 24"><path fill="none" stroke="currentColor" stroke-width="2" stroke-linecap="round" stroke-linejoin="round" d="m12 3 2.7 5.6 6.1.9-4.4 4.3 1 6.1L12 17l-5.4 2.9 1-6.1L3.2 9.5l6.1-.9z"/></symbol>
<symbol id="i-standings" viewBox="0 0 24 24"><path fill="none" stroke="currentColor" stroke-width="2" stroke-linecap="round" stroke-linejoin="round" d="M4 20V10h4v10M10 20V4h4v16M16 20v-7h4v7M3 20h18"/></symbol>
<symbol id="i-trend" viewBox="0 0 24 24"><path fill="none" stroke="currentColor" stroke-width="2" stroke-linecap="round" stroke-linejoin="round" d="M3 17 9 11l4 4 8-9"/><path fill="none" stroke="currentColor" stroke-width="2" stroke-linecap="round" stroke-linejoin="round" d="M15 6h6v6"/></symbol>
<symbol id="i-analytics" viewBox="0 0 24 24"><circle fill="none" stroke="currentColor" stroke-width="2" stroke-linecap="round" stroke-linejoin="round" cx="6" cy="17" r="2"/><circle fill="none" stroke="currentColor" stroke-width="2" stroke-linecap="round" stroke-linejoin="round" cx="12" cy="9" r="2"/><circle fill="none" stroke="currentColor" stroke-width="2" stroke-linecap="round" stroke-linejoin="round" cx="18" cy="14" r="2"/><circle fill="none" stroke="currentColor" stroke-width="2" stroke-linecap="round" stroke-linejoin="round" cx="17" cy="5" r="1.4"/><path fill="none" stroke="currentColor" stroke-width="2" stroke-linecap="round" stroke-linejoin="round" d="M3 3v18h18"/></symbol>
<symbol id="i-jersey" viewBox="0 0 24 24"><path fill="none" stroke="currentColor" stroke-width="2" stroke-linecap="round" stroke-linejoin="round" d="M8.5 3.5 3 6l1.5 5 2.5-.8V20.5h10V10.2l2.5.8L21 6l-5.5-2.5c-.4 1.6-1.8 2.5-3.5 2.5S8.9 5.1 8.5 3.5z"/><path fill="none" stroke="currentColor" stroke-width="2" stroke-linecap="round" stroke-linejoin="round" d="M10 12h4M10 15h4" opacity=".6"/></symbol>
<symbol id="i-calendar" viewBox="0 0 24 24"><rect fill="none" stroke="currentColor" stroke-width="2" stroke-linecap="round" stroke-linejoin="round" x="3.5" y="5" width="17" height="15.5" rx="2"/><path fill="none" stroke="currentColor" stroke-width="2" stroke-linecap="round" stroke-linejoin="round" d="M3.5 10h17M8 3v4M16 3v4"/><circle fill="currentColor" cx="8.5" cy="14.5" r="1.1"/><circle fill="currentColor" cx="12" cy="14.5" r="1.1"/></symbol>
<symbol id="i-trophy" viewBox="0 0 24 24"><path fill="none" stroke="currentColor" stroke-width="2" stroke-linecap="round" stroke-linejoin="round" d="M7 4h10v5a5 5 0 0 1-10 0z"/><path fill="none" stroke="currentColor" stroke-width="2" stroke-linecap="round" stroke-linejoin="round" d="M7 6H4v2a3 3 0 0 0 3 3M17 6h3v2a3 3 0 0 1-3 3M12 14v4M8 21h8M9.5 18h5"/></symbol>
<symbol id="i-archive" viewBox="0 0 24 24"><rect fill="none" stroke="currentColor" stroke-width="2" stroke-linecap="round" stroke-linejoin="round" x="3" y="4" width="18" height="5" rx="1.2"/><path fill="none" stroke="currentColor" stroke-width="2" stroke-linecap="round" stroke-linejoin="round" d="M4.5 9v10.5h15V9M10 13h4"/></symbol>
<symbol id="i-settings" viewBox="0 0 24 24"><path fill="none" stroke="currentColor" stroke-width="2" stroke-linecap="round" stroke-linejoin="round" d="M4 7h9M17 7h3M4 17h3M11 17h9"/><circle fill="none" stroke="currentColor" stroke-width="2" stroke-linecap="round" stroke-linejoin="round" cx="15" cy="7" r="2"/><circle fill="none" stroke="currentColor" stroke-width="2" stroke-linecap="round" stroke-linejoin="round" cx="9" cy="17" r="2"/></symbol>
<symbol id="i-goal" viewBox="0 0 24 24"><path fill="none" stroke="currentColor" stroke-width="2" stroke-linecap="round" stroke-linejoin="round" style="stroke-width:1.1" opacity=".7" d="M15.6 5.6L18.7 8.7M10.6 5.6L18.7 13.7M5.6 5.6L18.7 18.7M5.3 10.3L15.0 20.0M5.3 15.3L10.0 20.0M5.3 9.7L9.4 5.6M5.3 14.7L14.4 5.6M5.3 19.7L18.7 6.3M10.0 20.0L18.7 11.3M15.0 20.0L18.7 16.3"/><path fill="none" stroke="currentColor" stroke-width="2" stroke-linecap="round" stroke-linejoin="round" d="M4 21V6.5A2.5 2.5 0 0 1 6.5 4h11A2.5 2.5 0 0 1 20 6.5V21"/><path fill="none" stroke="currentColor" stroke-width="2" stroke-linecap="round" stroke-linejoin="round" d="M2 21h20"/></symbol>
<symbol id="i-puck" viewBox="0 0 24 24"><ellipse fill="none" stroke="currentColor" stroke-width="2" stroke-linecap="round" stroke-linejoin="round" cx="12" cy="8" rx="8" ry="3.5"/><path fill="none" stroke="currentColor" stroke-width="2" stroke-linecap="round" stroke-linejoin="round" d="M4 8v7c0 2 3.6 3.5 8 3.5s8-1.5 8-3.5V8"/><path fill="none" stroke="currentColor" stroke-width="2" stroke-linecap="round" stroke-linejoin="round" d="M7.5 9.2c1.2.5 2.7.8 4.5.8" opacity=".5"/></symbol>
<symbol id="i-target" viewBox="0 0 24 24"><rect fill="none" stroke="currentColor" stroke-width="2" stroke-linecap="round" stroke-linejoin="round" x="3.5" y="3.5" width="17" height="17" rx="2.5"/><path fill="none" stroke="currentColor" stroke-width="2" stroke-linecap="round" stroke-linejoin="round" style="stroke-width:1.2" d="M9.2 3.5v17M14.8 3.5v17M3.5 9.2h17M3.5 14.8h17" opacity=".5"/><rect fill="currentColor" x="9.9" y="9.9" width="4.2" height="4.2" rx=".8"/><circle fill="currentColor" cx="6.35" cy="17.65" r="1.3"/><circle fill="currentColor" cx="17.65" cy="6.35" r="1.3"/></symbol>
<symbol id="i-hide" viewBox="0 0 24 24"><path fill="none" stroke="currentColor" stroke-width="2" stroke-linecap="round" stroke-linejoin="round" d="M2.5 12S6 5.5 12 5.5 21.5 12 21.5 12 18 18.5 12 18.5 2.5 12 2.5 12z"/><circle fill="none" stroke="currentColor" stroke-width="2" stroke-linecap="round" stroke-linejoin="round" cx="12" cy="12" r="3"/><path fill="none" stroke="currentColor" stroke-width="2" stroke-linecap="round" stroke-linejoin="round" d="m4 20 16-16"/></symbol>
<symbol id="i-moon" viewBox="0 0 24 24"><path fill="none" stroke="currentColor" stroke-width="2" stroke-linecap="round" stroke-linejoin="round" d="M20 14.5A8 8 0 0 1 9.5 4 8 8 0 1 0 20 14.5z"/></symbol>
<symbol id="i-rookie" viewBox="0 0 24 24"><path fill="none" stroke="currentColor" stroke-width="2" stroke-linecap="round" stroke-linejoin="round" d="M12 3c.7 4.6 2.4 6.3 7 7-4.6.7-6.3 2.4-7 7-.7-4.6-2.4-6.3-7-7 4.600-.7 6.300-2.400 7-7z"/><path fill="none" stroke="currentColor" stroke-width="2" stroke-linecap="round" stroke-linejoin="round" d="M19 16.5v4M17 18.5h4"/></symbol>
<symbol id="i-key" viewBox="0 0 24 24"><circle fill="none" stroke="currentColor" stroke-width="2" stroke-linecap="round" stroke-linejoin="round" cx="8" cy="15" r="4.5"/><path fill="none" stroke="currentColor" stroke-width="2" stroke-linecap="round" stroke-linejoin="round" d="m11.2 11.8 9.3-9.3M16 7l3 3M14 9l2 2"/></symbol>
<symbol id="i-user" viewBox="0 0 24 24"><circle fill="none" stroke="currentColor" stroke-width="2" stroke-linecap="round" stroke-linejoin="round" cx="12" cy="8" r="4"/><path fill="none" stroke="currentColor" stroke-width="2" stroke-linecap="round" stroke-linejoin="round" d="M4 21c0-4.4 3.6-7 8-7s8 2.6 8 7"/></symbol>
<symbol id="i-sun" viewBox="0 0 24 24"><circle fill="none" stroke="currentColor" stroke-width="2" stroke-linecap="round" stroke-linejoin="round" cx="12" cy="12" r="4"/><path fill="none" stroke="currentColor" stroke-width="2" stroke-linecap="round" stroke-linejoin="round" d="M12 2.5v2.5M12 19v2.5M2.5 12H5M19 12h2.5M5.3 5.3l1.8 1.8M16.9 16.9l1.8 1.8M5.3 18.7l1.8-1.8M16.9 7.1l1.8-1.8"/></symbol>
<symbol id="i-dot" viewBox="0 0 24 24"><circle fill="currentColor" cx="12" cy="12" r="6"/></symbol>
<symbol id="i-menu" viewBox="0 0 24 24"><path fill="none" stroke="currentColor" stroke-width="2" stroke-linecap="round" stroke-linejoin="round" d="M4 6h16M4 12h16M4 18h16"/></symbol>
<symbol id="i-close" viewBox="0 0 24 24"><path fill="none" stroke="currentColor" stroke-width="2" stroke-linecap="round" stroke-linejoin="round" d="m5 5 14 14M19 5 5 19"/></symbol>
</svg>
